<svg xmlns="http://www.w3.org/2000/svg" version="1.1" xmlns:xlink="http://www.w3.org/1999/xlink" xmlns:svgjs="http://svgjs.dev/svgjs" width="100%" height="100%" viewBox="0 0 1000 600"><rect width="1000" height="600" x="0" y="0" fill="#050505"/><g><circle r="166.66666666666666" cx="440.17890421549475" cy="315.28391477184744" fill="#616161" transform="matrix(0.9889628590040609,0,0,0.9889628590040611,-1.6058276140337568,-11.80409024048754)"/><path d="M128.01878798842566 390.2838786106015Q134.51425606674798 323.96968125284593 176.35715508291722 285.29898757725266Q218.35111149625672 246.77935129882974 291.16077693233467 246.77935129882974L291.16077693233467 246.77935129882974Q335.722709097569 246.77935129882974 370.6169678439052 257.65548389509036Q405.3601691930709 268.531616491351 450.9795031384973 290.2838816838722L450.9795031384973 290.2838816838722Q494.48403352353967 309.770285918839 523.9402259717455 319.58901673490766Q553.245361022781 329.4077475509763 589.197021549309 329.4077475509763L589.197021549309 329.4077475509763Q631.6441501541594 329.4077475509763 657.6260224674486 308.2597119471361Q683.7589521779082 286.9606189461258 694.6350847741687 240.28388322050742L694.6350847741687 240.28388322050742L752.339010493218 240.28388322050742Q745.8435424148959 306.59808057826297 703.8495860015562 345.117716856686Q662.006686985387 383.78841053227916 589.197021549309 383.78841053227916L589.197021549309 383.78841053227916Q544.6350893840747 383.78841053227916 509.74083063773855 372.91227793601865Q474.99762928857285 362.03614533975804 429.2272379459762 340.2838801472368L429.2272379459762 340.2838801472368Q385.7227075609337 320.64641851509964 356.41757250989826 310.97874509620135Q327.1124374588627 301.1600142801327 291.16077693233467 301.1600142801327L291.16077693233467 301.1600142801327Q248.71364832748424 301.1600142801327 222.58071861702476 322.3080498839728Q196.59884630373554 343.6071428849831 185.72271370747495 390.2838786106015L185.72271370747495 390.2838786106015L128.01878798842566 390.2838786106015Z " fill="#050505" transform="matrix(0.9889628590040609,0,0,0.9889628590040611,-1.6058276140337568,-11.80409024048754)"/><path d="M738.7039833812005 387.9689711406087Q714.0018943073155 387.9689711406087 702.0757374234827 377.09770774035815Q690.178883136416 366.2264443401075 690.178883136416 343.8685630075165L690.178883136416 343.8685630075165L690.178883136416 284.384291572183Q690.178883136416 262.02641023959205 702.0757374234827 251.15514683934143Q714.0018943073155 240.2838834390908 738.7039833812005 240.2838834390908L738.7039833812005 240.2838834390908L789.5439887705127 240.2838834390908L789.5439887705127 252.53236888735162L738.7039833812005 252.53236888735162Q721.5912668697547 252.53236888735162 713.4744475655244 260.3268596271539Q705.3576282612942 268.1213503669563 705.3576282612942 284.384291572183L705.3576282612942 284.384291572183L705.3576282612942 308.0021845657194L778.7899357573267 308.0021845657194L778.7899357573267 320.2506700139802L705.3576282612942 320.2506700139802L705.3576282612942 343.8685630075165Q705.3576282612942 360.13150421274327 713.4744475655244 367.9259949525456Q721.5912668697547 375.7204856923479 738.7039833812005 375.7204856923479L738.7039833812005 375.7204856923479L790.8040004314581 375.7204856923479L790.8040004314581 387.9689711406087L738.7039833812005 387.9689711406087ZM824.5605919060908 390.28387628513644Q820.1358997943985 390.28387628513644 817.0591271339503 387.23640622145433Q814.011657070268 384.1596335610061 814.011657070268 379.73494144931374L814.011657070268 379.73494144931374Q814.011657070268 375.3102493376215 817.0591271339503 372.1455688868747Q820.1358997943985 368.98088843612777 824.5605919060908 368.98088843612777L824.5605919060908 368.98088843612777Q828.9852840177831 368.98088843612777 832.0620566782314 372.1455688868747Q835.1095267419136 375.3102493376215 835.1095267419136 379.73494144931374L835.1095267419136 379.73494144931374Q835.1095267419136 384.1596335610061 832.0620566782314 387.23640622145433Q828.9852840177831 390.28387628513644 824.5605919060908 390.28387628513644L824.5605919060908 390.28387628513644ZM872.8805739735121 266.45110235128436Q868.8661182165462 266.45110235128436 865.9065559431626 263.49154007790077Q862.946993669779 260.53197780451717 862.946993669779 256.5175220475513L862.946993669779 256.5175220475513Q862.946993669779 252.53236888735162 865.9065559431626 249.6607144042665Q868.8661182165462 246.81836251794763 872.8805739735121 246.81836251794763L872.8805739735121 246.81836251794763Q876.895029730478 246.81836251794763 879.7373816167968 249.6607144042665Q882.5797335031157 252.53236888735162 882.5797335031157 256.5175220475513L882.5797335031157 256.5175220475513Q882.5797335031157 260.53197780451717 879.7373816167968 263.49154007790077Q876.895029730478 266.45110235128436 872.8805739735121 266.45110235128436L872.8805739735121 266.45110235128436ZM877.1001479078411 390.28387628513644Q870.5656688289843 386.70895947966324 868.1335532973918 382.1670569809063Q865.7014377657994 377.62515448214924 865.7014377657994 369.62554556498367L865.7014377657994 369.62554556498367L865.7014377657994 288.8089836838752L879.8252894070954 288.8089836838752L879.8252894070954 370.0357819197101Q879.8252894070954 373.8451194993128 881.2025114551055 376.247932434139Q882.5797335031157 378.68004796573155 886.3890710827184 381.84472841647835L886.3890710827184 381.84472841647835L877.1001479078411 390.28387628513644Z " fill="#616161" transform="matrix(0.9889628590040609,0,0,0.9889628590040611,-1.6058276140337568,-11.80409024048754)"/></g></svg>